<svg width="1200" height="1220" viewBox="0 0 1200 1220" fill="none" xmlns="http://www.w3.org/2000/svg">
<path d="M1136.26 958.301C1153.7 958.301 1168.62 964.599 1181.19 977.115C1193.76 989.712 1200 1004.97 1200 1023.06C1200 1040.99 1193.84 1056.09 1181.43 1068.52C1169.02 1080.96 1154.1 1087.09 1136.42 1087.09C1117.93 1087.09 1102.61 1080.71 1090.36 1068.04C1078.12 1055.36 1072.04 1040.18 1072.04 1022.74C1072.04 1011.03 1074.88 1000.21 1080.55 990.357C1086.23 980.506 1094.09 972.755 1104.07 966.941C1114.04 961.208 1124.75 958.301 1136.26 958.301ZM0.081092 1083.94V961.369H19.381C30.5717 961.369 38.8431 962.096 43.9519 963.55C51.3313 965.487 57.1699 969.121 61.5489 974.37C65.9278 979.699 68.0362 985.916 68.0362 993.022C68.0362 997.705 67.0631 1001.9 65.0358 1005.7C63.0896 1009.49 59.8459 1013.13 55.3859 1016.44C62.8463 1019.91 68.3606 1024.35 71.7665 1029.52C75.2534 1034.77 76.9563 1040.99 76.9563 1048.17C76.9563 1055.04 75.1723 1061.33 71.6043 1066.99C68.0362 1072.64 63.414 1076.92 57.8186 1079.66C52.1422 1082.49 44.3573 1083.86 34.4641 1083.86H0L0.081092 1083.94ZM23.5167 983.575V1009.41H28.6255C34.3019 1009.41 38.5187 1008.2 41.2758 1005.86C44.033 1003.44 45.4115 1000.21 45.4115 996.091C45.4115 992.215 44.1141 989.227 41.438 986.966C38.8431 984.705 34.8696 983.575 29.4364 983.575H23.4356H23.5167ZM23.5167 1030.25V1061.66H29.3553C39.0053 1061.66 45.5737 1060.45 48.9796 1058.02C52.3855 1055.6 54.0073 1052.05 54.0073 1047.36C54.0073 1042.04 52.0611 1037.92 48.0876 1034.85C44.1141 1031.78 37.5456 1030.25 28.3011 1030.25H23.4356H23.5167ZM103.311 961.289H126.747V1061.66H160.887V1083.86H103.311V961.289ZM220.084 961.289H243.844L291.202 1083.86H266.874L257.224 1058.59H207.028L196.973 1083.86H172.645L220.084 961.289ZM232.167 993.83L215.705 1035.9H248.466L232.167 993.83ZM416.732 982.929L400.351 998.513C389.161 986.805 376.673 980.91 362.725 980.91C350.966 980.91 340.992 984.947 332.964 992.941C324.936 1000.94 320.881 1010.79 320.881 1022.49C320.881 1030.65 322.665 1037.92 326.233 1044.22C329.801 1050.59 334.829 1055.52 341.397 1059.15C347.966 1062.79 355.183 1064.56 363.13 1064.56C369.942 1064.56 376.186 1063.27 381.781 1060.77C387.377 1058.27 393.621 1053.66 400.351 1046.96L416.245 1063.43C407.163 1072.32 398.567 1078.37 390.458 1081.84C382.349 1085.24 373.186 1086.93 362.725 1086.93C343.587 1086.93 327.936 1080.87 315.691 1068.84C303.527 1056.73 297.446 1041.31 297.446 1022.41C297.446 1010.22 300.203 999.32 305.798 989.792C311.312 980.264 319.259 972.674 329.639 966.86C340.019 961.046 351.129 958.22 363.049 958.22C373.186 958.22 382.998 960.32 392.404 964.68C401.811 968.96 409.92 975.016 416.732 982.929ZM441.222 961.369H464.901V1003.52L498.311 961.369H526.531L483.552 1016.03L530.747 1083.94H502.933L464.901 1029.52V1083.94H441.222V961.369ZM551.183 1083.94V961.369H570.564C581.754 961.369 590.026 962.096 595.134 963.55C602.514 965.487 608.352 969.121 612.731 974.37C617.11 979.699 619.219 985.916 619.219 993.022C619.219 997.705 618.246 1001.9 616.218 1005.7C614.272 1009.49 611.029 1013.13 606.568 1016.44C614.029 1019.91 619.543 1024.35 622.949 1029.52C626.436 1034.77 628.139 1040.99 628.139 1048.17C628.139 1055.04 626.355 1061.33 622.787 1066.99C619.219 1072.64 614.597 1076.92 609.001 1079.66C603.325 1082.49 595.54 1083.86 585.647 1083.86H551.183V1083.94ZM574.618 983.575V1009.41H579.727C585.403 1009.41 589.62 1008.2 592.377 1005.86C595.135 1003.44 596.513 1000.21 596.513 996.091C596.513 992.215 595.216 989.227 592.54 986.966C589.945 984.705 585.971 983.575 580.538 983.575H574.537H574.618ZM574.618 1030.25V1061.66H580.457C590.107 1061.66 596.675 1060.45 600.081 1058.02C603.487 1055.6 605.109 1052.05 605.109 1047.36C605.109 1042.04 603.163 1037.92 599.189 1034.85C595.216 1031.78 588.647 1030.25 579.403 1030.25H574.537H574.618ZM652.791 961.289H676.064V1083.86H652.791V961.289ZM707.852 961.289H732.667C746.29 961.289 755.94 962.5 761.779 964.922C767.536 967.345 772.24 971.382 775.727 976.953C779.213 982.525 780.997 989.227 780.997 996.898C780.997 1004.97 779.051 1011.67 775.159 1017.08C771.266 1022.49 765.428 1026.61 757.643 1029.36L786.755 1083.86H761.13L733.396 1031.94H731.207V1083.86H707.771V961.289H707.852ZM731.288 1009.25H738.667C746.128 1009.25 751.318 1008.28 754.156 1006.35C756.994 1004.41 758.373 1001.18 758.373 996.736C758.373 994.072 757.724 991.73 756.264 989.792C754.886 987.854 753.021 986.401 750.669 985.513C748.317 984.624 744.019 984.221 737.775 984.221H731.288V1009.33V1009.25ZM809.623 961.289H837.438C855.359 961.289 868.658 963.469 877.335 967.91C886.012 972.351 893.229 979.537 898.824 989.469C904.42 999.401 907.258 1011.03 907.258 1024.27C907.258 1033.72 905.717 1042.36 902.554 1050.35C899.392 1058.27 895.013 1064.81 889.499 1070.05C883.903 1075.22 877.902 1078.86 871.415 1080.87C864.928 1082.89 853.737 1083.86 837.762 1083.86H809.542V961.289H809.623ZM832.977 983.817V1061.09H843.844C854.548 1061.09 862.333 1059.88 867.117 1057.46C871.983 1055.04 875.875 1050.92 878.957 1045.1C882.038 1039.29 883.579 1032.18 883.579 1023.79C883.579 1010.79 879.93 1000.69 872.631 993.507C866.063 987.047 855.521 983.817 840.924 983.817H832.977ZM997.919 978.003L980.565 993.264C974.483 984.867 968.32 980.587 961.995 980.587C958.913 980.587 956.399 981.395 954.453 983.09C952.507 984.705 951.534 986.562 951.534 988.581C951.534 990.68 952.183 992.618 953.642 994.476C955.589 996.898 961.265 1002.15 970.834 1010.22C979.754 1017.65 985.187 1022.33 987.052 1024.27C991.756 1029.04 995.161 1033.64 997.108 1038C999.054 1042.36 1000.11 1047.12 1000.11 1052.29C1000.11 1062.3 996.621 1070.62 989.647 1077.24C982.673 1083.78 973.591 1087.09 962.4 1087.09C953.642 1087.09 946.02 1084.99 939.532 1080.71C933.045 1076.43 927.45 1069.73 922.827 1060.53L942.533 1048.66C948.453 1059.48 955.264 1064.89 962.968 1064.89C967.023 1064.89 970.347 1063.76 973.104 1061.41C975.862 1059.07 977.159 1056.41 977.159 1053.34C977.159 1050.51 976.105 1047.77 974.078 1045.02C972.05 1042.2 967.509 1038 960.454 1032.27C947.074 1021.36 938.397 1012.97 934.505 1007.07C930.612 1001.18 928.666 995.283 928.666 989.389C928.666 980.91 931.91 973.562 938.478 967.506C944.966 961.45 952.994 958.382 962.563 958.382C968.726 958.382 974.564 959.835 980.078 962.661C985.593 965.487 991.593 970.655 998.081 978.165L997.919 978.003ZM1024.68 961.369H1047.95V1083.94H1024.68V961.369ZM1136.1 981.152C1124.67 981.152 1115.1 985.109 1107.39 993.022C1099.61 1000.94 1095.72 1010.95 1095.72 1023.06C1095.72 1036.63 1100.58 1047.36 1110.39 1055.2C1118.02 1061.33 1126.69 1064.48 1136.51 1064.48C1147.61 1064.48 1157.1 1060.53 1164.89 1052.53C1172.75 1044.54 1176.65 1034.69 1176.65 1022.98C1176.65 1011.27 1172.67 1001.42 1164.81 993.345C1156.94 985.27 1147.37 981.233 1136.1 981.233V981.152Z" fill="white"/>
<path d="M462.959 1120.12H481.448V1217.66H462.959V1120.12ZM505.532 1120.12H523.373L565.378 1184.31V1120.12H584.029V1217.66H566.108L524.183 1153.71V1217.66H505.532V1120.12ZM699.342 1137.31L686.286 1149.75C677.366 1140.46 667.392 1135.78 656.363 1135.78C646.957 1135.78 639.091 1139.01 632.685 1145.31C626.278 1151.69 623.035 1159.52 623.035 1168.81C623.035 1175.27 624.413 1181.08 627.251 1186.09C630.09 1191.09 634.144 1195.13 639.253 1197.96C644.443 1200.86 650.2 1202.23 656.526 1202.23C661.959 1202.23 666.905 1201.27 671.365 1199.25C675.825 1197.23 680.772 1193.59 686.124 1188.27L698.775 1201.35C691.557 1208.37 684.665 1213.22 678.258 1215.96C671.852 1218.71 664.473 1220 656.201 1220C641.037 1220 628.549 1215.23 618.818 1205.63C609.168 1196.02 604.302 1183.74 604.302 1168.64C604.302 1158.95 606.492 1150.31 610.952 1142.72C615.331 1135.13 621.656 1129.08 629.927 1124.48C638.118 1119.87 647.038 1117.61 656.526 1117.61C664.635 1117.61 672.42 1119.31 679.88 1122.7C687.341 1126.09 693.828 1130.94 699.18 1137.23L699.342 1137.31ZM726.67 1198.76C729.589 1198.76 732.022 1199.73 734.05 1201.75C736.077 1203.77 737.131 1206.19 737.131 1209.1C737.131 1212 736.077 1214.43 734.05 1216.45C732.022 1218.46 729.589 1219.51 726.67 1219.51C723.751 1219.51 721.318 1218.46 719.291 1216.45C717.263 1214.43 716.209 1212 716.209 1209.1C716.209 1206.19 717.263 1203.77 719.291 1201.75C721.318 1199.73 723.751 1198.76 726.67 1198.76Z" fill="white"/>
<path fill-rule="evenodd" clip-rule="evenodd" d="M405.295 1159.84V1165.9V1171.96L0.078125 1166.63V1165.17L405.295 1159.84ZM794.78 1159.84V1165.9V1171.96L1200 1166.63V1165.17L794.78 1159.84Z" fill="white"/>
<path fill-rule="evenodd" clip-rule="evenodd" d="M599.979 0C845.039 0 1043.8 197.829 1043.8 441.926C1043.8 685.942 845.12 883.852 599.979 883.852C354.919 883.852 156.162 686.023 156.162 441.926C156.162 197.91 354.838 0 599.979 0ZM599.979 25.2737C831.091 25.2737 1018.41 211.798 1018.41 441.926C1018.41 672.054 831.091 858.578 599.979 858.578C368.867 858.578 181.544 672.054 181.544 441.926C181.544 211.798 368.867 25.2737 599.979 25.2737Z" fill="#EF6848"/>
<path fill-rule="evenodd" clip-rule="evenodd" d="M484.662 422.306C532.101 301.832 735.074 198.153 747.562 64.0332C784.621 158.668 744.4 231.986 691.122 282.695C635.412 335.826 533.966 381.933 509.719 455.573C484.662 531.556 523.586 613.998 618.95 628.856C667.768 636.446 724.938 640.079 727.289 723.975C676.201 657.844 650.738 672.782 584.486 645.974C493.095 608.911 449.549 511.289 484.662 422.306Z" fill="#151515"/>
<path fill-rule="evenodd" clip-rule="evenodd" d="M748.12 65.5669C777.394 141.872 756.472 204.209 719.17 252.011L718.845 252.415C716.818 255.079 714.71 257.663 712.52 260.166C711.79 261.054 711.061 261.862 710.331 262.669L710.25 262.75L709.763 263.315C709.195 264.042 708.547 264.688 707.979 265.415C707.249 266.222 706.519 267.11 705.708 267.918L705.627 267.999L705.465 268.241C703.195 270.744 700.843 273.166 698.491 275.589C697.68 276.396 696.869 277.204 696.059 278.011C694.437 279.626 692.815 281.241 691.112 282.775C690.22 283.583 689.328 284.471 688.436 285.278C687.544 286.086 686.652 286.893 685.76 287.782C684.868 288.589 683.895 289.396 683.003 290.285C682.03 291.092 681.138 291.9 680.164 292.707C679.191 293.515 678.218 294.322 677.245 295.129C676.272 295.937 675.299 296.744 674.326 297.552C673.353 298.359 672.38 299.167 671.325 299.974C670.352 300.782 669.298 301.589 668.325 302.397C667.271 303.204 666.298 304.012 665.244 304.819C664.189 305.626 663.135 306.434 662.162 307.241C661.108 308.049 660.054 308.856 658.999 309.664L655.837 312.086L652.593 314.509L649.349 316.931L646.025 319.353L642.7 321.776L639.375 324.198L636.05 326.621L632.645 329.043L629.239 331.465L625.833 333.888L622.427 336.31L619.021 338.733L615.615 341.236L612.209 343.739L608.803 346.242L605.398 348.745L601.992 351.248C599.721 352.944 597.451 354.64 595.261 356.335C594.126 357.143 592.991 358.031 591.936 358.838L588.612 361.422C587.476 362.311 586.422 363.118 585.287 364.006C584.151 364.894 583.097 365.702 582.043 366.59C580.989 367.478 579.854 368.286 578.799 369.174C577.745 370.062 576.61 370.95 575.556 371.839C574.502 372.727 573.447 373.615 572.393 374.503C571.339 375.392 570.285 376.28 569.231 377.168C568.176 378.056 567.122 378.944 566.149 379.833C565.095 380.721 564.122 381.609 563.068 382.497C562.094 383.385 561.04 384.274 560.067 385.243C559.094 386.131 558.04 387.1 557.067 387.988C556.094 388.876 555.121 389.845 554.147 390.733C553.174 391.622 552.201 392.591 551.309 393.56C550.336 394.528 549.444 395.417 548.471 396.386C547.579 397.355 546.606 398.243 545.714 399.212C544.822 400.181 543.93 401.15 543.038 402.119C542.146 403.088 541.254 404.057 540.443 405.026C539.551 405.994 538.74 406.963 537.929 407.932C537.118 408.901 536.226 409.87 535.415 410.92C534.604 411.889 533.793 412.939 532.982 413.908C532.171 414.877 531.442 415.926 530.631 416.895C529.901 417.864 529.09 418.914 528.36 419.964C527.63 421.013 526.9 421.982 526.171 423.032C525.441 424.082 524.792 425.131 524.062 426.1C523.414 427.15 522.684 428.2 522.035 429.249C521.386 430.299 520.737 431.349 520.089 432.399C519.44 433.448 518.872 434.498 518.305 435.628C517.737 436.678 517.169 437.809 516.602 438.858C516.034 439.908 515.467 441.038 514.98 442.169C514.493 443.299 513.926 444.349 513.439 445.48C512.953 446.61 512.466 447.74 512.061 448.79C511.574 449.921 511.169 451.051 510.763 452.182C510.358 453.312 509.952 454.442 509.547 455.573V455.654C509.222 456.784 508.817 457.834 508.493 458.964L508.411 459.287C508.087 460.337 507.763 461.467 507.438 462.517L507.357 462.84C507.033 463.89 506.79 464.939 506.546 465.989L506.384 466.474C506.141 467.523 505.898 468.573 505.654 469.623L505.573 470.107C505.33 471.157 505.087 472.207 504.925 473.176L504.843 473.66C504.681 474.629 504.438 475.679 504.276 476.648L504.195 477.294C504.033 478.182 503.87 479.151 503.789 480.039L503.627 480.847C503.465 481.816 503.384 482.704 503.222 483.673L503.141 484.319C503.059 485.207 502.897 486.176 502.816 487.064L502.735 488.033C502.654 488.921 502.573 489.809 502.492 490.617L502.411 491.505C502.33 492.393 502.33 493.201 502.248 494.089L502.167 495.219C502.167 496.027 502.086 496.834 502.086 497.642V498.934C502.086 499.58 502.086 500.306 502.086 500.952V502.648V504.425C502.086 505.071 502.086 505.716 502.167 506.362L502.248 507.897C502.248 508.623 502.33 509.35 502.411 509.996V510.158L502.492 511.369C502.573 512.095 502.654 512.822 502.654 513.549L502.816 514.841C502.897 515.568 502.978 516.375 503.059 517.102L503.141 517.99C503.303 518.959 503.384 519.928 503.546 520.897L503.627 521.22C503.789 522.35 503.951 523.4 504.195 524.53V524.773L504.276 525.338C462.189 318.304 804.965 254.272 747.795 65.3247L748.12 65.5669Z" fill="#EF6848"/>
<path fill-rule="evenodd" clip-rule="evenodd" d="M642.203 632.489C684.29 639.594 725.322 653.24 727.268 724.055C676.18 657.924 650.718 672.862 584.465 646.054C542.46 629.016 510.51 599.14 491.777 563.208C537.108 628.936 580.411 622.153 642.203 632.569V632.489Z" fill="#7E220B"/>
<path fill-rule="evenodd" clip-rule="evenodd" d="M724.114 462.356C704.571 548.916 644.968 525.984 595.583 533.251C572.634 536.643 557.713 549.159 556.902 561.271C555.929 575.401 573.77 589.128 612.613 590.582C652.51 592.035 708.22 575.643 723.222 650.496C686.325 609.153 637.913 623.526 594.772 609.153C549.847 594.215 518.546 559.898 569.228 528.164C609.693 502.81 700.922 494.978 724.114 462.356Z" fill="#151515"/>
<path fill-rule="evenodd" clip-rule="evenodd" d="M717.78 631.439C719.889 637.011 721.673 643.309 723.133 650.415C686.236 609.072 637.824 623.445 594.683 609.072C571.815 601.482 552.515 588.805 545.703 574.109C590.06 634.265 687.371 570.879 717.78 631.439Z" fill="#EF6848"/>
<path fill-rule="evenodd" clip-rule="evenodd" d="M724.11 462.356C704.567 548.916 644.965 525.984 595.58 533.252C579.118 535.674 566.792 542.86 560.791 551.177C589.903 502.649 692.728 541.649 724.11 462.437V462.356Z" fill="#7E220B"/>
<path fill-rule="evenodd" clip-rule="evenodd" d="M610.84 667.129C661.117 712.751 701.257 764.105 705.718 835.97C724.288 813.603 723.963 778.72 715.449 752.559C703.852 716.949 676.038 689.173 640.114 676.98C631.275 673.992 621.706 670.762 610.84 667.129Z" fill="#151515"/>
<path fill-rule="evenodd" clip-rule="evenodd" d="M592.106 461.226C650.897 431.996 718.447 414.797 758.669 358.113C756.074 503.618 543.613 469.947 528.611 554.085C514.987 511.208 559.831 477.295 592.106 461.226Z" fill="#151515"/>
<path fill-rule="evenodd" clip-rule="evenodd" d="M528.604 554.085C529.901 459.369 743.011 467.847 758.662 358.113C756.067 503.618 543.606 469.947 528.604 554.085Z" fill="#EF6848"/>
<path fill-rule="evenodd" clip-rule="evenodd" d="M617.317 370.789C683.244 325.813 754.687 280.918 773.743 204.29C800.098 318.707 728.818 367.075 656.079 406.317C605.234 433.771 530.629 458.883 519.439 508.058C518.709 501.033 518.952 493.847 519.925 486.499C528.521 424.728 569.067 403.734 617.317 370.708V370.789Z" fill="#151515"/>
<path fill-rule="evenodd" clip-rule="evenodd" d="M774.166 205.987C774.491 207.601 774.896 209.216 775.22 210.831L775.301 211.154C775.626 212.769 775.95 214.384 776.193 215.999V216.241C776.518 217.856 776.761 219.471 777.004 221.086L777.085 221.409C777.329 223.024 777.572 224.558 777.734 226.173V226.254C777.977 227.869 778.14 229.484 778.302 231.018V231.26C778.464 232.794 778.626 234.329 778.707 235.863V236.186C778.788 237.72 778.951 239.173 779.032 240.708C779.275 245.391 779.356 249.913 779.275 254.354C778.059 303.044 755.11 336.715 723.565 363.039C720.727 365.461 717.807 367.722 714.807 369.983L714.401 370.306C713.509 370.952 712.617 371.598 711.725 372.324C708.725 374.585 705.643 376.766 702.481 378.865L701.832 379.269C698.832 381.287 695.831 383.225 692.75 385.163C691.696 385.809 690.641 386.455 689.668 387.101L689.506 387.182C688.452 387.828 687.398 388.474 686.343 389.12L686.262 389.2L685.614 389.604L682.938 391.219C681.883 391.865 680.829 392.511 679.694 393.157L679.613 393.238C678.559 393.884 677.423 394.53 676.369 395.176L676.288 395.256L676.045 395.418C674.991 395.983 674.018 396.629 672.963 397.194L669.639 399.052H669.557L666.233 400.909H666.152L662.827 402.766L659.421 404.623L656.015 406.48L653.663 407.772L653.258 408.014C602.575 434.903 530.404 460.015 519.375 508.302C529.593 383.387 787.222 381.933 774.004 205.906L774.085 206.229L774.166 205.987Z" fill="#7E220B"/>
<path fill-rule="evenodd" clip-rule="evenodd" d="M520.65 339.057C522.921 336.392 525.191 333.727 527.462 331.143C548.627 307 571.738 284.391 594.687 261.863C556.25 289.074 541.491 295.211 494.295 306.273C475.563 310.634 449.776 320.162 434.287 344.063C453.344 316.044 495.431 320.485 520.569 339.057H520.65Z" fill="#151515"/>
<path fill-rule="evenodd" clip-rule="evenodd" d="M441.439 438.536C436.006 438.778 429.437 439.262 423.518 439.424C412.57 439.747 403.164 433.933 408.678 422.386C410.705 418.188 407.461 416.573 404.542 414.635C399.677 411.405 404.623 404.138 408.921 402.523C406.083 396.225 405.353 393.883 412.732 391.541C416.463 390.33 415.814 387.746 413.868 385.485C411.678 383.063 412.165 381.125 414.03 378.945C416.787 375.634 422.463 371.193 424.248 369.82C426.194 368.286 429.437 366.106 429.681 363.522C429.843 361.907 428.87 360.696 428.708 358.516C428.545 356.336 429.356 353.51 430.816 350.441C447.44 315.397 493.825 319.031 520.828 338.975C501.042 362.472 482.472 388.554 471.281 416.976C455.306 457.592 453.765 502.003 467.794 543.345C469.01 546.898 470.308 550.37 471.686 553.842C440.79 512.257 440.547 457.43 441.601 438.455L441.439 438.536Z" fill="#7E220B"/>
<path fill-rule="evenodd" clip-rule="evenodd" d="M495.684 596.397C432.756 544.719 435.919 461.873 438.027 438.779C433.405 439.021 428.215 439.344 423.512 439.506C420.511 439.587 417.592 439.264 415.078 438.375C426.35 437.245 436.081 428.767 435.27 418.916C435.027 415.605 434.297 412.779 433.567 410.195C427.972 390.493 447.353 377.573 463.652 372.486C480.682 367.157 477.357 347.293 448.975 351.25C463.49 338.25 499.008 333.889 520.011 338.492H520.092H520.173H520.255L520.66 338.815H520.741H520.822H520.903H520.984C501.198 362.312 482.628 388.393 471.437 416.816C455.462 457.432 453.921 501.842 467.95 543.185C474.519 562.564 484.087 580.328 496.089 596.074L495.684 596.397Z" fill="#151515"/>
</svg>
